<svg version="1.1" id="shellsquare" xmlns="http://www.w3.org/2000/svg" xmlns:xlink="http://www.w3.org/1999/xlink" x="0px" y="0px"
	 viewBox="0 0 6235 1271" style="enable-background:new 0 0 6235 1271;" xml:space="preserve">
	 <defs xmlns="http://www.w3.org/2000/svg">
    <style>
			:root {
				--logo_color_shell: inherit;
				--logo_color_square: inherit;
				--logo_color_top_icon: inherit;
				--logo_color_bottom_icon: inherit;
				--logo_color_icon_border: inherit;
			}
    </style>
		<!-- 55B848 -->
  </defs>
			<g>
          <g>
            <path fill="var(--logo_color_shell)" d="M1603.7,873.8V751.3c22.2,18.6,46.3,32.6,72.3,41.9c26,9.3,52.3,14,78.9,14c15.6,0,29.2-1.4,40.8-4.2
			c11.6-2.8,21.3-6.7,29.1-11.7c7.8-5,13.6-10.8,17.4-17.6s5.7-14.1,5.7-22c0-10.7-3.1-20.3-9.2-28.7s-14.5-16.2-25.1-23.3
			s-23.2-14-37.7-20.7c-14.5-6.6-30.2-13.4-47.1-20.3c-42.9-17.9-74.8-39.7-95.9-65.5c-21-25.8-31.6-56.9-31.6-93.4
			c0-28.6,5.7-53.1,17.2-73.7c11.5-20.5,27.1-37.4,46.9-50.7c19.8-13.3,42.7-23,68.7-29.3s53.6-9.4,82.7-9.4c28.6,0,53.9,1.7,76,5.2
			c22.1,3.4,42.4,8.7,61,15.9v114.4c-9.2-6.4-19.2-12-30-16.8c-10.9-4.8-22-8.9-33.5-12.1s-22.9-5.5-34.3-7.1
			c-11.4-1.5-22.1-2.3-32.3-2.3c-14,0-26.8,1.3-38.3,4s-21.2,6.4-29.1,11.3c-7.9,4.8-14,10.7-18.4,17.4c-4.3,6.8-6.5,14.4-6.5,22.8
			c0,9.2,2.4,17.4,7.3,24.7c4.8,7.3,11.7,14.2,20.7,20.7c8.9,6.5,19.8,12.9,32.5,19.1c12.8,6.3,27.2,12.7,43.3,19.3
			c21.9,9.2,41.7,18.9,59.1,29.3c17.5,10.3,32.5,22,45,35s22.1,27.9,28.7,44.6c6.6,16.7,10,36.2,10,58.4c0,30.6-5.8,56.3-17.4,77.1
			s-27.4,37.7-47.3,50.5c-19.9,12.9-43.1,22.1-69.5,27.7c-26.4,5.6-54.3,8.4-83.6,8.4c-30.1,0-58.8-2.6-85.9-7.7
			C1647.1,891.7,1623.6,884,1603.7,873.8z" />
            <path fill="var(--logo_color_shell)" d="M2432.8,894.9h-120.6V672.1c0-57.4-20.9-86.1-62.8-86.1c-21.4,0-38.8,8-52.1,24.1s-19.9,36.5-19.9,61.2v223.5h-121V314.6
			h121v246.5h1.5c29.6-45.2,69.8-67.8,120.6-67.8c88.8,0,133.2,53.6,133.2,160.8v240.8H2432.8z" />
            <path fill="var(--logo_color_shell)" d="M2880.6,733.3h-255.7c4.1,56.9,39.9,85.4,107.6,85.4c43.1,0,81-10.2,113.7-30.6v87.3c-36.2,19.4-83.3,29.1-141.2,29.1
			c-63.3,0-112.4-17.5-147.4-52.6s-52.4-84-52.4-146.8c0-65.1,18.9-116.6,56.7-154.6c37.8-38,84.2-57,139.3-57
			c57.2,0,101.4,17,132.6,50.9c31.3,33.9,46.9,80,46.9,138.2v50.7H2880.6z M2768.5,659.1c0-56.1-22.7-84.2-68.1-84.2
			c-19.4,0-36.2,8-50.3,24.1c-14.2,16.1-22.8,36.1-25.8,60.1L2768.5,659.1L2768.5,659.1z" />
            <path d="M3073.5,894.9h-121V314.6h121V894.9z" fill="var(--logo_color_shell)"/>
            <path d="M3296.3,894.9h-120.9V314.6h120.9V894.9z" fill="var(--logo_color_shell)" />
            <path style="fill:var(--logo_color_square);" d="M3384.7,873.8V751.3c22.2,18.6,46.3,32.6,72.3,41.9c26,9.3,52.3,14,78.8,14c15.6,0,29.2-1.4,40.8-4.2
			s21.3-6.7,29.1-11.7s13.6-10.8,17.4-17.6c3.8-6.8,5.7-14.1,5.7-22c0-10.7-3.1-20.3-9.2-28.7c-6.1-8.4-14.5-16.2-25.1-23.3
			s-23.2-14-37.7-20.7c-14.5-6.6-30.2-13.4-47.1-20.3c-42.9-17.9-74.8-39.7-95.9-65.5c-21-25.8-31.6-56.9-31.6-93.4
			c0-28.6,5.7-53.1,17.2-73.7c11.5-20.5,27.1-37.4,46.9-50.7c19.8-13.3,42.7-23,68.7-29.3s53.6-9.4,82.7-9.4c28.6,0,53.9,1.7,76,5.2
			c22.1,3.4,42.4,8.7,61.1,15.9v114.4c-9.2-6.4-19.2-12-30-16.8c-10.9-4.8-22-8.9-33.5-12.1s-22.9-5.5-34.3-7.1
			c-11.4-1.5-22.1-2.3-32.3-2.3c-14,0-26.8,1.3-38.3,4s-21.2,6.4-29.1,11.3c-7.9,4.8-14,10.7-18.4,17.4c-4.3,6.8-6.5,14.4-6.5,22.8
			c0,9.2,2.4,17.4,7.3,24.7c4.8,7.3,11.7,14.2,20.7,20.7c8.9,6.5,19.8,12.9,32.5,19.1c12.8,6.3,27.2,12.7,43.2,19.3
			c21.9,9.2,41.7,18.9,59.1,29.3c17.5,10.3,32.5,22,45,35s22.1,27.9,28.7,44.6s10,36.2,10,58.4c0,30.6-5.8,56.3-17.4,77.1
			c-11.6,20.8-27.4,37.7-47.3,50.5c-19.9,12.9-43.1,22.1-69.5,27.7c-26.4,5.6-54.3,8.4-83.6,8.4c-30.1,0-58.8-2.6-85.9-7.7
			C3428.2,891.7,3404.6,884,3384.7,873.8z" />
            <path style="fill:var(--logo_color_square);" d="M4221,1075.1h-121V840.9h-1.5c-27.3,42.4-67.5,63.5-120.6,63.5c-49.3,0-88.9-17.2-118.8-51.5
			c-30-34.3-45-82.5-45-144.5c0-65.3,16.5-117.5,49.4-156.5s75.8-58.6,128.6-58.6c48,0,83.4,18.4,106.4,55.1h1.5v-45.5h121V1075.1z
			 M4102.4,707.7v-31.4c0-25.5-7.4-46.9-22.2-64.3c-14.8-17.4-33.8-26-57-26c-26.8,0-47.8,10.5-63.2,31.6
			c-15.3,21.1-23,50.2-23,87.5c0,33.4,7.5,59.6,22.4,78.5s34.4,28.3,58.4,28.3c25.5,0,46-9.6,61.4-28.7
			C4094.7,764,4102.4,738.8,4102.4,707.7z" />
            <path style="fill:var(--logo_color_square);"
              d="M4695.3,894.9h-120.6v-59.7h-1.9c-29.9,46.2-69.8,69.3-119.8,69.3c-90.8,0-136.3-55-136.3-165V502.9h120.6
			v225.8c0,55.4,21.9,83.1,65.8,83.1c21.7,0,39-7.6,52.1-22.8c13-15.2,19.5-35.8,19.5-61.8V502.9h120.6L4695.3,894.9L4695.3,894.9z" />
            <path style="fill:var(--logo_color_square);" d="M5123.2,894.9h-114.4v-56.3h-1.5c-26.3,43.9-65.2,65.8-116.7,65.8c-38,0-67.9-10.8-89.8-32.3
			c-21.8-21.6-32.7-50.3-32.7-86.3c0-76,45-119.9,135.1-131.7l106.4-14.2c0-42.9-23.2-64.3-69.7-64.3c-46.7,0-91.1,13.9-133.2,41.7
			v-91.1c16.8-8.7,39.9-16.3,69.1-23c29.2-6.6,55.8-10,79.8-10c111.8,0,167.6,55.8,167.6,167.3L5123.2,894.9L5123.2,894.9z
			 M5009.5,735.6v-26.4l-71.2,9.2c-39.3,5.1-58.9,22.8-58.9,53.2c0,13.8,4.8,25.1,14.4,33.9c9.6,8.8,22.5,13.2,38.9,13.2
			c22.7,0,41.2-7.8,55.5-23.5C5002.4,779.5,5009.5,759.6,5009.5,735.6z" />
            <path style="fill:var(--logo_color_square);" d="M5474.6,612c-14.5-7.9-31.5-11.9-50.9-11.9c-26.3,0-46.8,9.6-61.6,28.9c-14.8,19.3-22.2,45.5-22.2,78.7v187.2
			H5219v-392h120.9v72.7h1.5c19.1-53.1,53.6-79.6,103.3-79.6c12.8,0,22.7,1.5,29.8,4.6V612H5474.6z" />
            <path style="fill:var(--logo_color_square);" d="M5879.9,733.3h-255.7c4.1,56.9,39.9,85.4,107.6,85.4c43.1,0,81-10.2,113.7-30.6v87.3
			c-36.2,19.4-83.3,29.1-141.2,29.1c-63.3,0-112.4-17.5-147.4-52.6s-52.4-84-52.4-146.8c0-65.1,18.9-116.6,56.6-154.6
			c37.8-38,84.2-57,139.3-57c57.2,0,101.4,17,132.6,50.9s46.9,80,46.9,138.2V733.3z M5767.8,659.1c0-56.1-22.7-84.2-68.1-84.2
			c-19.4,0-36.2,8-50.3,24.1c-14.2,16.1-22.8,36.1-25.8,60.1L5767.8,659.1L5767.8,659.1z" />
          </g>
          <path
            style="fill-rule:evenodd;clip-rule:evenodd;fill:var(--logo_color_top_icon);stroke:var(--logo_color_icon_border);stroke-width:10;stroke-miterlimit:10;"
            d="M355.7,978.2c0-6.1,0-12.3,0-18.4c0.8-0.9,2-1.7,2.4-2.8c10.2-28.7,25.5-54.6,43.2-79.1
		c28.8-39.7,54.8-81.1,75.7-125.6c26.2-55.8,43.5-114.2,49.1-175.7c6.9-74.4,32.7-140.9,82.3-197.4c22.3-25.4,46.9-48.4,76.3-65.5
		c26.4-15.4,54.7-21.2,84.4-13c13.7,3.8,26.6,10.7,40.9,16.7c35.7-21.3,75.4-23.8,117.1-14.7c13.2-15,30.3-23.2,49.8-26.3
		c9.5-1.5,19.1-2.1,28.6-3c8.3-0.8,17.6,0.9,24.6-2.5c16.6-8,33.7-8.4,51.2-8c2.5,0.1,5.3-0.2,7.4-1.3c7.9-4.3,15.7-9.1,23.4-13.6
		c9.6,0,19.3,0,28.9,0c12.5,6.1,16,16.4,14,29.3c-1,6.5-1.7,13.1-3.9,19.2c-5.3,14.8-11.6,29.2-17.1,43.9c-1.8,4.8-3.7,10-3.5,14.9
		c1.6,27.2-5.6,52-19.2,75.1c-2.9,4.9-3.3,9.3-2.4,14.8c3.3,22.1-0.9,42.8-14.8,60.7c-4.6,6-5.9,11.7-4.6,19.3
		c6.2,36.3,2.1,71.5-14.3,104.8c-20.1,40.5-51.4,70.5-89.9,93c-58.6,34.2-123.2,48.5-189.8,55.2c-33.5,3.4-67.1,5.2-99.8,14.3
		c-57.3,15.8-108.7,43.6-155.6,79.3c-33.7,25.7-65.7,53.7-98.1,81.1c-14.2,11.9-29.4,22-46.3,29.4
		C381.5,988.7,367.9,989.8,355.7,978.2z" />
          <path style="fill-rule:evenodd;clip-rule:evenodd;fill:var(--logo_color_bottom_icon);" d="M1149.9,348.4c11.5,0,21.5-0.4,31.5,0.1c6.9,0.4,12.6-0.8,18.3-5.1c11.3-8.6,24.6-11,38.4-10.1
		c12.2,0.7,19.7,7.9,19.7,20.1c0,8.1-1.2,16.7-3.7,24.4c-5.1,15.3-11.1,30.3-17.5,45.1c-2.8,6.6-5,12.9-4.4,20.1
		c1.8,24.4-5.1,46.6-17.7,67.2c-3.5,5.7-5,11.1-3.9,18.3c3.5,23.3,0.1,45.4-15.9,64.1c-3,3.5-3.6,7.1-2.7,12c5,26.5,4.7,53-2.6,79.1
		c-10.5,37.9-31.9,68.7-61.3,94.2c-41,35.6-89.7,55.2-141.7,67.8c-28,6.8-56.4,11.1-85.1,13.8c-29,2.7-58.2,4.4-86.8,11.3
		c-44.7,10.7-85.6,29.8-125,52.7c-38,22.1-71.5,50.1-104.8,78.6c-18.9,16.2-37.9,32.4-58.2,46.8c-11.5,8.2-25.6,12.9-38.7,18.8
		c-5.9,2.6-11.9,2.1-17.5-1.6c-7.4-5-10.5-10.6-7.6-19c4.7-13.6,9.6-27.3,16.5-39.8c9.7-17.6,21.1-34.2,32-51.1
		c14.4-22.4,28.8-44.9,43.5-67.2c2.8-4.3,6-8.9,10.2-11.6c44.5-29.9,91.5-54.7,144-67.4c22.1-5.3,44.4-8.2,67.2-9.9
		c52.7-3.9,104.6-12.3,154.9-29.5c34.2-11.7,66.5-27,94.7-49.7c37-29.9,66.9-65.3,80.3-112.3c7.6-26.4,9.2-53.1,5.2-80.4
		c-0.6-4.4-0.5-10.3,1.9-13.5c14.5-19.6,17.1-41.7,15.3-64.8c-0.5-6.4,0.2-11.6,3.3-17.2c12.5-23,19.7-47.5,18.2-74.1
		C1149.8,356,1149.9,353.4,1149.9,348.4z" />
        </g>
</svg>
 	